<?xml version="1.0" encoding="utf-8"?>
<!-- Generator: Adobe Illustrator 27.3.1, SVG Export Plug-In . SVG Version: 6.00 Build 0)  -->
<svg version="1.1" id="Layer_1" xmlns="http://www.w3.org/2000/svg" xmlns:xlink="http://www.w3.org/1999/xlink" x="0px" y="0px"
	 viewBox="0 0 448 512" style="enable-background:new 0 0 448 512;" xml:space="preserve">
<style type="text/css">
	.st0{display:none;}
	.st1{fill:#FFFFFF;stroke:#000000;stroke-width:50;stroke-linecap:round;stroke-miterlimit:10;}
</style>
<path class="st0" d="M240,80c0-17.7-14.3-32-32-32s-32,14.3-32,32v144H32c-17.7,0-32,14.3-32,32s14.3,32,32,32h144v144
	c0,17.7,14.3,32,32,32s32-14.3,32-32V288h144c17.7,0,32-14.3,32-32s-14.3-32-32-32H240V80z"/>
<line class="st1" x1="224" y1="56.3" x2="224" y2="415.7"/>
<line class="st1" x1="44.3" y1="236" x2="403.7" y2="236"/>
</svg>
